<svg viewBox="0 0 64 64" xmlns="http://www.w3.org/2000/svg">
  <defs>
    <linearGradient id="queryeer-db-top" x1="0" y1="0" x2="0" y2="1">
      <stop offset="0%" stop-color="#56b8ff" />
      <stop offset="100%" stop-color="#3c95ee" />
    </linearGradient>
    <linearGradient id="queryeer-db-mid" x1="0" y1="0" x2="0" y2="1">
      <stop offset="0%" stop-color="#2f86e5" />
      <stop offset="100%" stop-color="#206fce" />
    </linearGradient>
    <linearGradient id="queryeer-db-bottom" x1="0" y1="0" x2="0" y2="1">
      <stop offset="0%" stop-color="#1d66c3" />
      <stop offset="100%" stop-color="#184ea7" />
    </linearGradient>
    <linearGradient id="queryeer-gear" x1="0" y1="0" x2="1" y2="1">
      <stop offset="0%" stop-color="#b8c0cb" />
      <stop offset="100%" stop-color="#6f7885" />
    </linearGradient>
  </defs>

  <ellipse cx="27" cy="14" rx="16" ry="6" fill="url(#queryeer-db-top)" />
  <path d="M11 14V23C11 26.3 18.2 29 27 29C35.8 29 43 26.3 43 23V14" fill="url(#queryeer-db-mid)" />
  <ellipse cx="27" cy="23" rx="16" ry="6" fill="#2f82dd" />
  <path d="M11 23V34C11 37.3 18.2 40 27 40C35.8 40 43 37.3 43 34V23" fill="url(#queryeer-db-bottom)" />
  <ellipse cx="27" cy="34" rx="16" ry="6" fill="#1d5fbe" />

  <g transform="translate(42 40)">
    <circle cx="0" cy="0" r="9.5" fill="url(#queryeer-gear)" />
    <g fill="url(#queryeer-gear)">
      <rect x="-1.5" y="-13" width="3" height="4" rx="1" />
      <rect x="-1.5" y="9" width="3" height="4" rx="1" />
      <rect x="9" y="-1.5" width="4" height="3" rx="1" />
      <rect x="-13" y="-1.5" width="4" height="3" rx="1" />
      <rect x="6.9" y="-9.4" width="3" height="4" rx="1" transform="rotate(45 8.4 -7.4)" />
      <rect x="6.9" y="5.4" width="3" height="4" rx="1" transform="rotate(135 8.4 7.4)" />
      <rect x="-9.9" y="5.4" width="3" height="4" rx="1" transform="rotate(-135 -8.4 7.4)" />
      <rect x="-9.9" y="-9.4" width="3" height="4" rx="1" transform="rotate(-45 -8.4 -7.4)" />
    </g>
    <circle cx="0" cy="0" r="5.2" fill="#f2f5f9" />
    <circle cx="0" cy="0" r="2.6" fill="#2e7fdb" />
  </g>
</svg>
